<?xml version="1.0" encoding="UTF-8"?>
<svg xmlns="http://www.w3.org/2000/svg" width="2286" height="442" viewBox="0 0 2286 442">
<defs>
<marker id="arrow" markerWidth="10" markerHeight="8" refX="9" refY="4" orient="auto"><path d="M0,0 L10,4 L0,8 z" fill="#1f2937"/></marker>
</defs>
<rect x="80.00" y="70.00" width="1926.40" height="132.00" rx="16.00" ry="16.00" fill="#d9dde3" stroke="#111827" stroke-width="1.5"/>
<polygon points="92.80,70.00 153.60,70.00 153.60,174.00 147.60,180.40 147.60,198.80 98.80,198.80 98.80,180.40 92.80,174.00" fill="#ffffff" stroke="#111827" stroke-width="1.0"/>
<polygon points="166.40,70.00 227.20,70.00 227.20,174.00 221.20,180.40 221.20,198.80 172.40,198.80 172.40,180.40 166.40,174.00" fill="#ffffff" stroke="#111827" stroke-width="1.0"/>
<polygon points="240.00,70.00 300.80,70.00 300.80,174.00 294.80,180.40 294.80,198.80 246.00,198.80 246.00,180.40 240.00,174.00" fill="#ffffff" stroke="#111827" stroke-width="1.0"/>
<polygon points="313.60,70.00 374.40,70.00 374.40,174.00 368.40,180.40 368.40,198.80 319.60,198.80 319.60,180.40 313.60,174.00" fill="#ffffff" stroke="#111827" stroke-width="1.0"/>
<polygon points="387.20,70.00 448.00,70.00 448.00,174.00 442.00,180.40 442.00,198.80 393.20,198.80 393.20,180.40 387.20,174.00" fill="#ffffff" stroke="#111827" stroke-width="1.0"/>
<polygon points="460.80,70.00 521.60,70.00 521.60,174.00 515.60,180.40 515.60,198.80 466.80,198.80 466.80,180.40 460.80,174.00" fill="#ffffff" stroke="#111827" stroke-width="1.0"/>
<polygon points="534.40,70.00 595.20,70.00 595.20,174.00 589.20,180.40 589.20,198.80 540.40,198.80 540.40,180.40 534.40,174.00" fill="#ffffff" stroke="#111827" stroke-width="1.0"/>
<polygon points="608.00,70.00 668.80,70.00 668.80,174.00 662.80,180.40 662.80,198.80 614.00,198.80 614.00,180.40 608.00,174.00" fill="#ffffff" stroke="#111827" stroke-width="1.0"/>
<polygon points="681.60,70.00 742.40,70.00 742.40,174.00 736.40,180.40 736.40,198.80 687.60,198.80 687.60,180.40 681.60,174.00" fill="#ffffff" stroke="#111827" stroke-width="1.0"/>
<polygon points="755.20,70.00 816.00,70.00 816.00,174.00 810.00,180.40 810.00,198.80 761.20,198.80 761.20,180.40 755.20,174.00" fill="#ffffff" stroke="#111827" stroke-width="1.0"/>
<polygon points="828.80,70.00 889.60,70.00 889.60,174.00 883.60,180.40 883.60,198.80 834.80,198.80 834.80,180.40 828.80,174.00" fill="#ffffff" stroke="#111827" stroke-width="1.0"/>
<polygon points="902.40,70.00 963.20,70.00 963.20,174.00 957.20,180.40 957.20,198.80 908.40,198.80 908.40,180.40 902.40,174.00" fill="#ffffff" stroke="#111827" stroke-width="1.0"/>
<polygon points="976.00,70.00 1036.80,70.00 1036.80,174.00 1030.80,180.40 1030.80,198.80 982.00,198.80 982.00,180.40 976.00,174.00" fill="#ffffff" stroke="#111827" stroke-width="1.0"/>
<polygon points="1049.60,70.00 1110.40,70.00 1110.40,174.00 1104.40,180.40 1104.40,198.80 1055.60,198.80 1055.60,180.40 1049.60,174.00" fill="#ffffff" stroke="#111827" stroke-width="1.0"/>
<polygon points="1123.20,70.00 1184.00,70.00 1184.00,174.00 1178.00,180.40 1178.00,198.80 1129.20,198.80 1129.20,180.40 1123.20,174.00" fill="#ffffff" stroke="#111827" stroke-width="1.0"/>
<polygon points="1196.80,70.00 1257.60,70.00 1257.60,174.00 1251.60,180.40 1251.60,198.80 1202.80,198.80 1202.80,180.40 1196.80,174.00" fill="#ffffff" stroke="#111827" stroke-width="1.0"/>
<polygon points="1270.40,70.00 1331.20,70.00 1331.20,174.00 1325.20,180.40 1325.20,198.80 1276.40,198.80 1276.40,180.40 1270.40,174.00" fill="#ffffff" stroke="#111827" stroke-width="1.0"/>
<polygon points="1344.00,70.00 1404.80,70.00 1404.80,174.00 1398.80,180.40 1398.80,198.80 1350.00,198.80 1350.00,180.40 1344.00,174.00" fill="#ffffff" stroke="#111827" stroke-width="1.0"/>
<polygon points="1417.60,70.00 1478.40,70.00 1478.40,174.00 1472.40,180.40 1472.40,198.80 1423.60,198.80 1423.60,180.40 1417.60,174.00" fill="#ffffff" stroke="#111827" stroke-width="1.0"/>
<polygon points="1491.20,70.00 1552.00,70.00 1552.00,174.00 1546.00,180.40 1546.00,198.80 1497.20,198.80 1497.20,180.40 1491.20,174.00" fill="#ffffff" stroke="#111827" stroke-width="1.0"/>
<polygon points="1564.80,70.00 1625.60,70.00 1625.60,174.00 1619.60,180.40 1619.60,198.80 1570.80,198.80 1570.80,180.40 1564.80,174.00" fill="#ffffff" stroke="#111827" stroke-width="1.0"/>
<polygon points="1638.40,70.00 1699.20,70.00 1699.20,174.00 1693.20,180.40 1693.20,198.80 1644.40,198.80 1644.40,180.40 1638.40,174.00" fill="#ffffff" stroke="#111827" stroke-width="1.0"/>
<polygon points="1712.00,70.00 1772.80,70.00 1772.80,174.00 1766.80,180.40 1766.80,198.80 1718.00,198.80 1718.00,180.40 1712.00,174.00" fill="#ffffff" stroke="#111827" stroke-width="1.0"/>
<polygon points="1785.60,70.00 1846.40,70.00 1846.40,174.00 1840.40,180.40 1840.40,198.80 1791.60,198.80 1791.60,180.40 1785.60,174.00" fill="#ffffff" stroke="#111827" stroke-width="1.0"/>
<polygon points="1859.20,70.00 1920.00,70.00 1920.00,174.00 1914.00,180.40 1914.00,198.80 1865.20,198.80 1865.20,180.40 1859.20,174.00" fill="#ffffff" stroke="#111827" stroke-width="1.0"/>
<polygon points="1932.80,70.00 1993.60,70.00 1993.60,174.00 1987.60,180.40 1987.60,198.80 1938.80,198.80 1938.80,180.40 1932.80,174.00" fill="#ffffff" stroke="#111827" stroke-width="1.0"/>
<line x1="80.00" y1="322.00" x2="2006.40" y2="322.00" stroke="#1f2937" stroke-width="1.2" marker-start="url(#arrow)" marker-end="url(#arrow)"/>
<line x1="80.00" y1="202.00" x2="80.00" y2="322.00" stroke="#6b7280" stroke-width="1"/>
<line x1="2006.40" y1="202.00" x2="2006.40" y2="322.00" stroke="#6b7280" stroke-width="1"/>
<text x="1043.20" y="314.00" text-anchor="middle" font-size="13" fill="#111827">Overall length 240.80 mm</text>
<line x1="2076.40" y1="202.00" x2="2076.40" y2="70.00" stroke="#1f2937" stroke-width="1.2" marker-start="url(#arrow)" marker-end="url(#arrow)"/>
<line x1="2006.40" y1="202.00" x2="2076.40" y2="202.00" stroke="#6b7280" stroke-width="1"/>
<line x1="2006.40" y1="70.00" x2="2076.40" y2="70.00" stroke="#6b7280" stroke-width="1"/>
<text x="2084.40" y="136.00" font-size="13" fill="#111827">Overall height 16.50 mm</text>
<line x1="92.80" y1="42.00" x2="153.60" y2="42.00" stroke="#1f2937" stroke-width="1.2" marker-start="url(#arrow)" marker-end="url(#arrow)"/>
<line x1="92.80" y1="42.00" x2="92.80" y2="70.00" stroke="#6b7280" stroke-width="1"/>
<line x1="153.60" y1="42.00" x2="153.60" y2="70.00" stroke="#6b7280" stroke-width="1"/>
<text x="123.20" y="34.00" text-anchor="middle" font-size="13" fill="#111827">Bit cavity OD 7.60 mm</text>
<line x1="1036.80" y1="-14.00" x2="1049.60" y2="-14.00" stroke="#1f2937" stroke-width="1.2" marker-start="url(#arrow)" marker-end="url(#arrow)"/>
<line x1="1036.80" y1="-14.00" x2="1036.80" y2="70.00" stroke="#6b7280" stroke-width="1"/>
<line x1="1049.60" y1="-14.00" x2="1049.60" y2="70.00" stroke="#6b7280" stroke-width="1"/>
<text x="1043.20" y="-22.00" text-anchor="middle" font-size="13" fill="#111827">Between cavities 1.60 mm</text>
<line x1="64.80" y1="70.00" x2="64.80" y2="174.00" stroke="#1f2937" stroke-width="1.2" marker-start="url(#arrow)" marker-end="url(#arrow)"/>
<line x1="64.80" y1="70.00" x2="92.80" y2="70.00" stroke="#6b7280" stroke-width="1"/>
<line x1="64.80" y1="174.00" x2="92.80" y2="174.00" stroke="#6b7280" stroke-width="1"/>
<text x="58.80" y="122.00" text-anchor="end" font-size="13" fill="#111827">Bit depth 13.00 mm</text>
<line x1="982.00" y1="198.40" x2="1030.80" y2="198.40" stroke="#1f2937" stroke-width="1.2" marker-start="url(#arrow)" marker-end="url(#arrow)"/>
<line x1="982.00" y1="198.40" x2="982.00" y2="180.40" stroke="#6b7280" stroke-width="1"/>
<line x1="1030.80" y1="198.40" x2="1030.80" y2="180.40" stroke="#6b7280" stroke-width="1"/>
<line x1="936.00" y1="262.00" x2="1006.40" y2="198.40" stroke="#1f2937" stroke-width="1.2" marker-end="url(#arrow)"/>
<text x="806.00" y="266.00" font-size="13" fill="#111827">Magnet hole OD 6.10 mm</text>
<line x1="1054.80" y1="180.40" x2="1054.80" y2="198.80" stroke="#1f2937" stroke-width="1.2" marker-start="url(#arrow)" marker-end="url(#arrow)"/>
<line x1="1030.80" y1="180.40" x2="1054.80" y2="180.40" stroke="#6b7280" stroke-width="1"/>
<line x1="1030.80" y1="198.80" x2="1054.80" y2="198.80" stroke="#6b7280" stroke-width="1"/>
<line x1="971.80" y1="284.00" x2="1054.80" y2="189.60" stroke="#1f2937" stroke-width="1.2" marker-end="url(#arrow)"/>
<text x="846.80" y="288.00" font-size="13" fill="#111827">Magnet depth 2.30 mm</text>
<line x1="2024.40" y1="46.00" x2="2000.80" y2="70.80" stroke="#1f2937" stroke-width="1.2" marker-end="url(#arrow)"/>
<text x="2024.40" y="42.00" font-size="13" fill="#111827">Outer edge radius R2.00 mm</text>
</svg>